<svg xmlns="http://www.w3.org/2000/svg" viewBox="0 0 1200 720" role="img" aria-label="Code and digital garden">
  <defs>
    <linearGradient id="bg" x1="0" y1="0" x2="1" y2="1"><stop stop-color="#171c38"/><stop offset=".54" stop-color="#303c83"/><stop offset="1" stop-color="#9b7ee7"/></linearGradient>
    <linearGradient id="glass" x1="0" y1="0" x2="0" y2="1"><stop stop-color="#ffffff" stop-opacity=".28"/><stop offset="1" stop-color="#ffffff" stop-opacity=".06"/></linearGradient>
    <filter id="blur"><feGaussianBlur stdDeviation="36"/></filter>
  </defs>
  <rect width="1200" height="720" rx="52" fill="url(#bg)"/>
  <circle cx="1000" cy="130" r="165" fill="#b9f6e6" opacity=".22" filter="url(#blur)"/><circle cx="130" cy="650" r="195" fill="#bba2ff" opacity=".32" filter="url(#blur)"/>
  <rect x="156" y="118" width="760" height="462" rx="28" fill="url(#glass)" stroke="#fff" stroke-opacity=".27"/>
  <circle cx="204" cy="164" r="11" fill="#fda6b7"/><circle cx="238" cy="164" r="11" fill="#ffd486"/><circle cx="272" cy="164" r="11" fill="#a5edce"/>
  <rect x="204" y="208" width="146" height="20" rx="10" fill="#b9f6e6" opacity=".94"/><rect x="204" y="248" width="406" height="15" rx="7.5" fill="#fff" opacity=".57"/>
  <rect x="235" y="300" width="230" height="16" rx="8" fill="#d9cdff"/><rect x="274" y="340" width="365" height="16" rx="8" fill="#aef3df"/><rect x="274" y="380" width="278" height="16" rx="8" fill="#fff" opacity=".72"/><rect x="235" y="420" width="430" height="16" rx="8" fill="#f5c7ff"/><rect x="274" y="460" width="288" height="16" rx="8" fill="#fff" opacity=".72"/>
  <path d="M764 474c45-54 82-36 86-96 4-60-40-78-24-139" fill="none" stroke="#b9f6e6" stroke-width="7" stroke-linecap="round"/><path d="M826 239c-18-23-2-55 28-49 25 5 28 38 7 53-13 9-27 5-35-4Z" fill="#b9f6e6"/>
  <text x="156" y="648" fill="#fff" font-family="Georgia, serif" font-size="35" letter-spacing="8" opacity=".82">BUILD · LEARN · GROW</text>
</svg>
